<svg id="svg" version="1.1" xmlns="http://www.w3.org/2000/svg" xmlns:xlink="http://www.w3.org/1999/xlink" width="400" height="185.92864288096033" viewBox="0, 0, 400,185.92864288096033"><g id="svgg"><path id="path0" d="M163.167 0.323 C 162.104 0.666,160.397 1.124,159.364 1.342 C 158.969 1.426,158.294 1.604,157.864 1.738 C 157.055 1.990,155.771 2.341,152.917 3.090 C 152.000 3.330,150.912 3.623,150.500 3.741 C 150.087 3.859,149.112 4.123,148.333 4.327 C 147.554 4.532,146.429 4.832,145.833 4.995 C 144.750 5.291,143.019 5.751,140.667 6.369 C 139.979 6.550,138.929 6.835,138.333 7.002 C 137.737 7.170,136.612 7.473,135.833 7.675 C 133.002 8.409,131.897 8.709,130.882 9.018 C 130.313 9.191,129.713 9.333,129.548 9.333 C 129.384 9.333,128.855 9.483,128.373 9.667 C 127.891 9.850,127.368 10.000,127.211 10.000 C 127.054 10.000,126.436 10.143,125.838 10.317 C 124.437 10.725,121.430 11.540,118.417 12.328 C 117.683 12.520,116.558 12.822,115.917 13.000 C 114.682 13.342,113.006 13.791,110.876 14.349 C 109.677 14.663,108.829 14.891,106.000 15.660 C 105.404 15.822,104.279 16.121,103.500 16.324 C 102.721 16.527,101.596 16.831,101.000 17.001 C 100.404 17.171,99.729 17.356,99.500 17.413 C 99.271 17.470,98.371 17.706,97.500 17.938 C 94.707 18.683,93.601 18.976,92.833 19.174 C 92.421 19.281,91.596 19.508,91.000 19.678 C 89.114 20.217,87.940 20.525,87.167 20.682 C 86.754 20.766,86.079 20.945,85.667 21.080 C 85.254 21.214,84.335 21.477,83.625 21.662 C 80.260 22.542,79.672 22.698,78.583 23.000 C 77.942 23.178,76.836 23.478,76.126 23.667 C 75.417 23.856,74.274 24.160,73.586 24.343 C 72.899 24.527,71.754 24.829,71.043 25.015 C 68.882 25.581,67.303 26.017,66.205 26.350 C 65.630 26.524,65.050 26.667,64.917 26.667 C 64.783 26.667,64.203 26.811,63.628 26.986 C 63.054 27.162,61.983 27.464,61.250 27.658 C 57.914 28.538,53.259 29.962,52.271 30.404 C 51.985 30.532,51.112 30.875,50.333 31.166 C 49.554 31.458,48.845 31.764,48.758 31.848 C 48.671 31.932,48.494 32.000,48.365 32.000 C 47.848 32.000,39.674 36.197,39.528 36.538 C 39.497 36.609,39.372 36.667,39.250 36.667 C 39.068 36.667,36.172 38.468,35.583 38.948 C 35.401 39.096,33.612 40.316,33.183 40.583 C 33.037 40.675,32.879 40.793,32.833 40.844 C 32.787 40.896,32.300 41.271,31.750 41.677 C 31.200 42.083,30.712 42.455,30.667 42.505 C 30.621 42.555,29.983 43.078,29.250 43.669 C 25.947 46.328,21.460 50.755,19.117 53.667 C 18.564 54.354,17.972 55.067,17.802 55.250 C 17.633 55.433,17.121 56.071,16.665 56.667 C 16.209 57.262,15.775 57.825,15.700 57.917 C 15.626 58.008,15.557 58.147,15.549 58.224 C 15.540 58.301,15.351 58.564,15.130 58.807 C 14.572 59.421,12.667 62.267,12.667 62.487 C 12.667 62.586,12.610 62.667,12.542 62.668 C 12.434 62.668,11.897 63.513,10.612 65.706 C 10.445 65.991,10.033 66.756,9.697 67.404 C 9.361 68.053,8.991 68.682,8.876 68.804 C 8.761 68.925,8.667 69.091,8.667 69.173 C 8.667 69.254,8.264 70.168,7.771 71.202 C 6.588 73.687,6.290 74.360,5.753 75.750 C 5.506 76.392,5.160 77.235,4.985 77.623 C 4.810 78.012,4.667 78.410,4.667 78.509 C 4.667 78.608,4.526 79.040,4.355 79.469 C 3.946 80.493,2.936 83.863,2.372 86.083 C 0.141 94.871,-0.702 107.230,0.389 115.167 C 1.248 121.421,2.846 128.244,4.347 132.064 C 4.523 132.512,4.667 133.003,4.667 133.156 C 4.667 133.308,4.734 133.505,4.817 133.592 C 4.900 133.679,5.083 134.087,5.225 134.500 C 5.538 135.414,6.872 138.622,7.131 139.083 C 7.233 139.267,7.583 139.979,7.907 140.667 C 8.231 141.354,8.855 142.592,9.294 143.417 C 9.972 144.694,10.438 145.501,11.886 147.913 C 11.994 148.094,12.496 148.865,13.000 149.627 C 13.504 150.389,14.015 151.197,14.134 151.423 C 14.254 151.649,14.422 151.833,14.509 151.833 C 14.596 151.833,14.667 151.907,14.667 151.998 C 14.667 152.234,18.449 157.172,19.146 157.845 C 19.295 157.989,19.829 158.577,20.333 159.151 C 23.288 162.517,32.180 170.500,32.974 170.500 C 33.058 170.500,33.213 170.605,33.320 170.734 C 33.637 171.116,38.556 174.325,40.369 175.332 C 40.727 175.531,43.415 176.917,46.083 178.277 C 46.552 178.516,47.754 179.051,48.833 179.500 C 49.337 179.710,50.050 180.014,50.417 180.175 C 50.783 180.336,51.496 180.613,52.000 180.790 C 52.504 180.968,53.179 181.204,53.500 181.317 C 59.674 183.479,65.062 184.711,71.845 185.512 C 75.641 185.961,86.233 185.918,89.583 185.441 C 92.770 184.987,95.643 184.498,97.083 184.164 C 100.197 183.443,101.450 183.138,101.986 182.970 C 102.828 182.706,105.476 182.005,106.302 181.827 C 106.698 181.742,107.373 181.563,107.802 181.429 C 108.563 181.192,109.695 180.883,112.417 180.172 C 113.150 179.980,114.294 179.676,114.958 179.495 C 115.623 179.314,116.729 179.017,117.417 178.833 C 120.681 177.963,121.324 177.790,122.333 177.508 C 122.929 177.342,124.054 177.044,124.833 176.847 C 125.612 176.650,126.601 176.377,127.031 176.241 C 127.460 176.105,128.135 175.927,128.531 175.845 C 128.926 175.763,129.700 175.573,130.250 175.422 C 130.800 175.271,131.813 174.993,132.500 174.805 C 133.188 174.617,134.237 174.325,134.833 174.157 C 135.429 173.990,136.554 173.688,137.333 173.488 C 139.075 173.040,140.902 172.556,142.333 172.163 C 144.390 171.599,145.921 171.186,147.250 170.839 C 147.983 170.647,149.127 170.342,149.792 170.162 C 150.456 169.981,151.562 169.683,152.250 169.500 C 152.937 169.317,154.062 169.017,154.750 168.833 C 155.438 168.650,156.563 168.350,157.250 168.167 C 157.938 167.983,159.044 167.686,159.708 167.505 C 160.373 167.324,161.517 167.020,162.250 166.828 C 163.526 166.494,164.516 166.228,167.083 165.528 C 167.725 165.353,168.887 165.043,169.667 164.840 C 170.446 164.636,171.571 164.330,172.167 164.160 C 172.762 163.989,173.887 163.685,174.667 163.484 C 176.439 163.026,178.078 162.590,179.583 162.175 C 180.225 161.999,181.350 161.697,182.083 161.505 C 182.817 161.314,183.960 161.009,184.625 160.828 C 185.290 160.648,186.396 160.350,187.083 160.167 C 187.771 159.983,188.896 159.683,189.583 159.500 C 190.271 159.317,191.377 159.019,192.042 158.838 C 192.706 158.658,193.831 158.355,194.540 158.167 C 197.252 157.445,198.453 157.124,199.500 156.838 C 200.096 156.676,201.221 156.378,202.000 156.176 C 202.779 155.973,203.904 155.673,204.500 155.508 C 205.096 155.342,205.902 155.120,206.292 155.014 C 206.681 154.907,207.000 154.748,207.000 154.660 C 207.000 154.572,207.100 154.500,207.223 154.500 C 207.624 154.500,208.869 153.067,209.266 152.148 C 209.842 150.813,209.787 149.755,208.992 146.867 C 208.622 145.519,208.174 143.892,207.997 143.250 C 207.645 141.969,207.174 140.204,206.651 138.210 C 205.861 135.190,205.633 134.362,205.325 133.385 C 205.146 132.818,205.000 132.209,205.000 132.031 C 205.000 131.853,204.881 131.422,204.735 131.074 C 204.590 130.725,204.408 130.097,204.332 129.678 C 204.255 129.259,203.957 128.092,203.668 127.083 C 203.379 126.075,203.078 124.950,202.998 124.583 C 202.919 124.217,202.737 123.588,202.594 123.187 C 202.450 122.786,202.333 122.338,202.333 122.192 C 202.333 122.046,202.191 121.436,202.016 120.838 C 201.704 119.766,201.321 118.369,200.667 115.917 C 200.483 115.229,200.183 114.104,200.000 113.417 C 199.817 112.729,199.519 111.623,199.338 110.958 C 199.032 109.830,198.815 109.021,198.002 105.960 C 197.485 104.014,196.989 102.163,196.672 101.000 C 196.509 100.404,196.211 99.279,196.008 98.500 C 195.805 97.721,195.496 96.628,195.320 96.072 C 195.144 95.515,195.000 94.929,195.000 94.769 C 195.000 94.610,194.850 94.015,194.668 93.448 C 194.273 92.223,193.196 88.218,192.987 87.197 C 192.906 86.801,192.801 86.416,192.755 86.342 C 192.682 86.223,191.761 82.785,191.057 80.000 C 190.930 79.496,190.716 78.708,190.583 78.250 C 190.348 77.447,190.039 76.296,189.318 73.543 C 189.132 72.832,188.836 71.725,188.661 71.083 C 188.486 70.442,188.184 69.317,187.989 68.583 C 187.794 67.850,187.527 66.888,187.394 66.447 C 187.261 66.005,187.086 65.330,187.005 64.947 C 186.923 64.563,186.621 63.425,186.333 62.417 C 186.045 61.408,185.751 60.321,185.680 60.000 C 185.610 59.679,185.432 59.004,185.286 58.500 C 185.139 57.996,184.867 57.001,184.681 56.290 C 184.139 54.215,183.680 52.502,183.333 51.250 C 183.155 50.608,182.854 49.483,182.663 48.750 C 182.472 48.017,182.177 46.929,182.008 46.333 C 181.838 45.737,181.652 45.025,181.594 44.750 C 181.536 44.475,181.386 43.875,181.261 43.417 C 181.135 42.958,180.870 41.983,180.671 41.250 C 180.473 40.517,180.174 39.429,180.008 38.833 C 179.842 38.237,179.543 37.112,179.343 36.333 C 179.144 35.554,178.837 34.392,178.662 33.750 C 178.487 33.108,178.187 31.983,177.996 31.250 C 177.805 30.517,177.511 29.429,177.343 28.833 C 177.175 28.238,176.871 27.113,176.668 26.333 C 176.465 25.554,176.157 24.446,175.983 23.872 C 175.809 23.297,175.668 22.734,175.669 22.622 C 175.670 22.509,175.525 21.929,175.346 21.333 C 175.167 20.737,174.866 19.669,174.677 18.958 C 174.488 18.248,174.179 17.085,173.990 16.375 C 173.801 15.665,173.503 14.558,173.328 13.917 C 173.001 12.719,172.613 11.260,171.997 8.917 C 170.183 2.018,169.902 1.440,167.870 0.419 C 166.823 -0.106,164.632 -0.151,163.167 0.323 M158.641 22.250 C 158.984 23.484,159.499 25.432,160.029 27.500 C 160.205 28.188,160.492 29.238,160.667 29.833 C 160.968 30.863,161.152 31.553,161.998 34.833 C 162.199 35.612,162.501 36.737,162.669 37.333 C 162.958 38.360,163.216 39.311,164.012 42.292 C 164.201 43.002,164.501 44.076,164.678 44.678 C 164.855 45.281,164.999 45.881,164.998 46.012 C 164.996 46.143,165.140 46.737,165.318 47.333 C 165.620 48.347,165.831 49.116,166.667 52.250 C 166.850 52.938,167.150 54.063,167.333 54.750 C 167.517 55.438,167.816 56.544,167.998 57.208 C 168.567 59.282,168.948 60.698,169.331 62.167 C 169.534 62.946,169.843 64.054,170.017 64.628 C 170.191 65.203,170.333 65.783,170.333 65.917 C 170.333 66.050,170.475 66.630,170.648 67.205 C 171.501 70.033,171.667 70.625,171.667 70.840 C 171.667 70.969,171.809 71.564,171.984 72.162 C 172.392 73.563,173.207 76.570,173.995 79.583 C 174.186 80.317,174.491 81.460,174.672 82.125 C 174.852 82.790,175.150 83.896,175.333 84.583 C 175.672 85.853,176.128 87.541,176.660 89.500 C 176.822 90.096,177.119 91.221,177.319 92.000 C 177.677 93.392,178.072 94.854,178.670 97.000 C 178.836 97.596,179.137 98.721,179.338 99.500 C 179.539 100.279,179.837 101.404,180.000 102.000 C 180.164 102.596,180.375 103.383,180.471 103.750 C 180.845 105.188,181.051 105.960,181.335 107.000 C 181.854 108.896,182.323 110.629,182.667 111.917 C 182.850 112.604,183.150 113.729,183.333 114.417 C 183.517 115.104,183.817 116.229,184.000 116.917 C 184.183 117.604,184.481 118.710,184.662 119.375 C 184.842 120.040,185.150 121.183,185.345 121.917 C 185.540 122.650,185.833 123.737,185.995 124.333 C 186.157 124.929,186.458 126.054,186.662 126.833 C 187.359 129.489,187.698 130.749,188.008 131.833 C 188.178 132.429,188.480 133.554,188.680 134.333 C 188.879 135.112,189.183 136.196,189.355 136.741 C 189.526 137.286,189.667 137.865,189.667 138.029 C 189.667 138.192,189.810 138.797,189.985 139.372 C 190.160 139.946,190.391 140.743,190.497 141.142 C 190.603 141.541,190.729 141.968,190.776 142.091 C 190.834 142.243,190.660 142.347,190.222 142.420 C 189.871 142.479,189.133 142.661,188.583 142.825 C 188.033 142.989,186.946 143.286,186.167 143.487 C 184.763 143.847,183.457 144.195,181.125 144.828 C 180.460 145.009,179.317 145.315,178.583 145.509 C 177.850 145.702,176.760 146.004,176.162 146.180 C 175.564 146.356,174.954 146.500,174.808 146.500 C 174.662 146.500,174.214 146.620,173.813 146.766 C 173.412 146.912,172.633 147.136,172.083 147.264 C 171.533 147.391,170.708 147.603,170.250 147.735 C 168.337 148.283,165.534 149.032,164.864 149.175 C 164.469 149.259,163.794 149.439,163.364 149.575 C 162.935 149.712,161.946 149.986,161.167 150.184 C 160.387 150.382,159.300 150.679,158.750 150.844 C 158.200 151.008,157.412 151.220,157.000 151.313 C 156.587 151.406,155.575 151.673,154.750 151.906 C 153.925 152.139,152.912 152.400,152.500 152.486 C 152.087 152.572,151.534 152.725,151.270 152.826 C 151.006 152.926,150.443 153.083,150.020 153.175 C 149.596 153.266,148.875 153.445,148.417 153.571 C 147.958 153.697,146.983 153.963,146.250 154.162 C 145.517 154.361,144.429 154.659,143.833 154.825 C 143.237 154.992,142.112 155.291,141.333 155.490 C 140.554 155.689,139.373 155.998,138.708 156.176 C 138.044 156.354,136.919 156.656,136.208 156.846 C 135.498 157.036,134.579 157.298,134.167 157.427 C 133.477 157.644,129.031 158.826,127.667 159.156 C 127.346 159.233,126.371 159.493,125.500 159.732 C 124.629 159.971,123.579 160.253,123.167 160.357 C 122.754 160.462,121.929 160.683,121.333 160.849 C 120.737 161.015,119.650 161.309,118.917 161.502 C 118.183 161.696,117.058 161.997,116.417 162.172 C 115.775 162.347,114.650 162.647,113.917 162.839 C 113.183 163.030,112.040 163.333,111.375 163.510 C 110.710 163.688,109.604 163.983,108.917 164.167 C 108.229 164.350,107.123 164.649,106.458 164.832 C 104.998 165.233,103.398 165.659,101.500 166.154 C 100.721 166.357,99.613 166.668,99.038 166.845 C 98.463 167.022,97.884 167.167,97.750 167.167 C 97.616 167.167,97.037 167.310,96.462 167.484 C 87.377 170.246,74.048 170.240,64.000 167.472 C 61.814 166.870,58.543 165.820,57.610 165.422 C 57.320 165.299,56.596 164.997,56.000 164.751 C 54.271 164.038,53.834 163.843,52.333 163.115 C 50.106 162.034,46.585 160.000,44.606 158.651 C 43.610 157.972,42.676 157.342,42.529 157.250 C 42.192 157.039,38.190 153.853,37.829 153.507 C 37.680 153.366,37.002 152.718,36.321 152.067 C 32.857 148.758,28.939 144.186,27.250 141.483 C 27.158 141.337,26.860 140.887,26.587 140.483 C 25.976 139.581,25.849 139.381,25.371 138.564 C 25.163 138.208,24.805 137.617,24.576 137.250 C 24.347 136.883,24.111 136.471,24.053 136.333 C 23.994 136.196,23.808 135.884,23.640 135.641 C 23.471 135.398,23.333 135.109,23.333 135.000 C 23.333 134.891,23.197 134.602,23.030 134.359 C 22.864 134.116,22.370 133.092,21.932 132.083 C 21.495 131.075,21.031 130.014,20.902 129.725 C 20.773 129.436,20.667 129.095,20.667 128.966 C 20.667 128.838,20.601 128.662,20.521 128.575 C 20.355 128.396,19.534 126.186,19.340 125.399 C 19.270 125.114,19.098 124.552,18.959 124.149 C 15.349 113.744,15.378 99.287,19.032 87.250 C 20.556 82.230,23.086 76.535,25.383 72.955 C 25.722 72.426,26.000 71.966,26.000 71.932 C 26.000 71.856,28.106 68.733,28.932 67.583 C 29.589 66.669,31.123 64.748,31.710 64.104 C 31.915 63.879,32.496 63.226,33.000 62.654 C 33.504 62.081,34.585 60.969,35.402 60.181 C 36.219 59.394,37.082 58.556,37.319 58.320 C 38.094 57.546,41.135 55.047,42.320 54.210 C 43.183 53.600,46.491 51.378,47.248 50.899 C 49.468 49.495,53.862 47.337,56.750 46.233 C 57.575 45.918,58.380 45.587,58.539 45.497 C 58.699 45.407,58.947 45.333,59.092 45.333 C 59.237 45.333,59.706 45.193,60.136 45.021 C 60.565 44.849,61.517 44.544,62.250 44.344 C 62.983 44.144,64.071 43.839,64.667 43.665 C 65.262 43.492,65.938 43.312,66.167 43.265 C 66.396 43.218,67.408 42.949,68.417 42.667 C 69.425 42.384,70.438 42.112,70.667 42.062 C 70.896 42.012,71.571 41.834,72.167 41.668 C 73.738 41.230,75.559 40.737,77.083 40.339 C 77.817 40.147,78.942 39.845,79.583 39.667 C 80.225 39.489,81.331 39.191,82.042 39.005 C 82.752 38.819,83.915 38.514,84.625 38.328 C 85.335 38.142,86.460 37.842,87.125 37.662 C 87.790 37.481,88.896 37.183,89.583 37.000 C 90.961 36.633,92.630 36.182,94.417 35.695 C 95.058 35.520,96.221 35.212,97.000 35.012 C 98.691 34.577,100.522 34.076,101.986 33.647 C 102.575 33.474,103.179 33.333,103.329 33.333 C 103.479 33.333,104.048 33.193,104.593 33.021 C 105.138 32.850,106.221 32.541,107.000 32.336 C 107.779 32.131,108.904 31.824,109.500 31.655 C 110.096 31.486,111.221 31.184,112.000 30.985 C 112.779 30.785,113.904 30.489,114.500 30.327 C 116.459 29.794,118.147 29.339,119.417 29.000 C 120.104 28.817,121.210 28.519,121.875 28.338 C 122.540 28.158,123.683 27.853,124.417 27.661 C 125.150 27.470,126.294 27.167,126.958 26.990 C 127.623 26.812,128.729 26.517,129.417 26.333 C 130.104 26.150,131.210 25.851,131.875 25.668 C 133.240 25.294,134.761 24.887,136.833 24.344 C 137.612 24.139,138.737 23.832,139.333 23.661 C 139.929 23.490,141.054 23.186,141.833 22.986 C 143.180 22.640,143.757 22.485,146.667 21.691 C 147.354 21.504,148.554 21.187,149.333 20.987 C 150.112 20.788,151.196 20.484,151.741 20.312 C 152.286 20.140,152.848 20.001,152.991 20.002 C 153.133 20.004,153.737 19.860,154.333 19.683 C 154.929 19.507,155.904 19.218,156.500 19.043 L 157.583 18.723 157.950 19.903 C 158.152 20.552,158.463 21.608,158.641 22.250 M100.667 39.236 C 99.888 39.446,98.875 39.710,98.417 39.824 C 97.958 39.938,97.133 40.175,96.583 40.351 C 96.033 40.526,95.473 40.669,95.338 40.668 C 95.203 40.667,94.603 40.809,94.005 40.984 C 93.406 41.158,92.317 41.463,91.583 41.662 C 90.850 41.861,89.757 42.168,89.155 42.345 C 88.553 42.522,87.946 42.667,87.807 42.667 C 87.669 42.667,87.111 42.805,86.569 42.973 C 86.027 43.142,84.946 43.446,84.167 43.649 C 83.387 43.851,82.225 44.161,81.583 44.337 C 80.942 44.513,79.817 44.814,79.083 45.005 C 77.577 45.399,75.766 45.890,74.167 46.339 C 73.571 46.506,72.746 46.728,72.333 46.833 C 71.573 47.027,70.265 47.371,68.000 47.973 C 66.867 48.275,65.392 48.681,63.333 49.257 C 62.652 49.448,61.372 49.871,59.333 50.578 C 58.921 50.721,58.384 50.949,58.141 51.086 C 57.898 51.222,57.618 51.333,57.519 51.333 C 57.357 51.333,54.887 52.439,54.095 52.867 C 53.918 52.962,53.243 53.319,52.595 53.658 C 51.947 53.998,51.154 54.437,50.833 54.634 C 50.512 54.831,49.959 55.162,49.602 55.371 C 48.782 55.851,48.582 55.978,47.685 56.587 C 47.282 56.860,46.830 57.158,46.681 57.250 C 44.162 58.795,43.439 60.301,44.623 61.540 C 45.387 62.340,46.864 62.361,47.703 61.583 C 47.950 61.354,48.190 61.167,48.236 61.167 C 48.283 61.167,48.948 60.735,49.714 60.208 C 50.480 59.681,51.252 59.168,51.428 59.068 C 51.605 58.967,51.938 58.780,52.167 58.651 C 52.396 58.522,52.697 58.328,52.835 58.219 C 53.384 57.787,58.194 55.482,60.000 54.785 C 62.924 53.656,64.222 53.242,67.917 52.255 C 68.375 52.133,69.313 51.879,70.000 51.690 C 70.688 51.502,72.000 51.151,72.917 50.910 C 73.833 50.670,74.921 50.377,75.333 50.259 C 75.746 50.141,76.721 49.880,77.500 49.680 C 78.905 49.319,80.213 48.971,82.542 48.338 C 83.833 47.987,85.383 47.574,90.083 46.327 C 90.817 46.132,91.906 45.829,92.505 45.653 C 93.103 45.477,93.698 45.333,93.826 45.333 C 93.955 45.333,94.515 45.191,95.072 45.018 C 95.628 44.844,96.721 44.538,97.500 44.338 C 98.279 44.138,99.404 43.837,100.000 43.670 C 100.596 43.502,101.556 43.232,102.133 43.070 C 104.470 42.414,104.958 40.165,102.981 39.157 C 102.226 38.772,102.417 38.765,100.667 39.236 M34.799 68.525 C 34.419 68.664,32.306 71.257,32.203 71.712 C 32.187 71.782,31.985 72.044,31.754 72.293 C 31.522 72.543,31.333 72.794,31.333 72.851 C 31.333 72.935,30.251 74.648,29.707 75.426 C 29.639 75.524,29.443 75.861,29.270 76.176 C 29.098 76.492,28.805 77.012,28.619 77.333 C 28.061 78.293,26.563 81.381,25.911 82.917 C 24.283 86.749,22.519 92.862,22.063 96.250 C 22.014 96.617,21.859 97.629,21.718 98.500 C 21.458 100.118,21.206 108.305,21.394 109.052 C 21.745 110.450,23.609 110.980,24.725 109.999 L 25.296 109.499 25.381 105.458 C 25.486 100.469,26.099 95.753,27.108 92.167 C 28.086 88.689,28.420 87.711,29.671 84.667 C 30.167 83.461,32.243 79.265,32.764 78.417 C 32.989 78.050,33.222 77.637,33.282 77.500 C 33.406 77.213,35.499 74.012,35.750 73.727 C 35.842 73.622,36.067 73.329,36.250 73.075 C 36.433 72.821,36.790 72.352,37.042 72.033 C 38.648 70.003,37.153 67.664,34.799 68.525 M253.986 159.630 C 252.674 160.803,253.291 162.376,255.293 162.966 C 258.177 163.815,261.543 164.667,262.013 164.667 C 262.855 164.667,263.667 163.739,263.667 162.777 C 263.667 161.470,263.316 161.265,259.163 160.146 C 254.999 159.024,254.698 158.994,253.986 159.630 M351.917 165.840 C 338.847 172.743,324.610 175.309,310.417 173.320 C 306.286 172.741,304.532 172.313,286.917 167.581 C 286.458 167.458,285.333 167.157,284.417 166.911 C 283.500 166.665,282.375 166.360,281.917 166.233 C 278.046 165.158,276.833 165.381,276.833 167.168 C 276.833 168.835,276.538 168.696,284.625 170.845 C 287.722 171.669,290.300 172.359,291.667 172.730 C 299.848 174.951,303.041 175.774,305.299 176.241 C 321.712 179.639,339.121 177.037,354.083 168.950 C 356.679 167.547,357.114 166.994,356.596 165.755 C 355.926 164.151,355.086 164.166,351.917 165.840 " stroke="none" fill="#04a3cb" fill-rule="evenodd"></path><path id="path1" d="M232.000 0.419 C 230.389 1.286,229.641 2.547,228.838 5.750 C 228.723 6.208,228.334 7.671,227.973 9.000 C 227.612 10.329,227.245 11.717,227.157 12.083 C 227.069 12.450,226.854 13.237,226.679 13.833 C 226.504 14.429,226.197 15.554,225.997 16.333 C 225.796 17.112,225.498 18.237,225.334 18.833 C 225.032 19.929,224.626 21.441,224.000 23.793 C 223.811 24.503,223.509 25.627,223.328 26.292 C 223.148 26.956,222.850 28.063,222.667 28.750 C 222.483 29.437,222.183 30.562,222.000 31.250 C 221.817 31.938,221.517 33.063,221.333 33.750 C 221.150 34.438,220.850 35.563,220.667 36.250 C 220.483 36.938,220.183 38.063,220.000 38.750 C 219.817 39.438,219.517 40.544,219.335 41.208 C 218.946 42.625,218.526 44.198,218.011 46.167 C 217.808 46.946,217.502 48.071,217.333 48.667 C 217.164 49.262,216.859 50.387,216.655 51.167 C 216.140 53.136,215.721 54.708,215.332 56.125 C 215.149 56.790,214.850 57.896,214.667 58.583 C 214.483 59.271,214.183 60.396,214.000 61.083 C 213.817 61.771,213.517 62.896,213.333 63.583 C 213.150 64.271,212.850 65.396,212.667 66.083 C 212.483 66.771,212.183 67.896,212.000 68.583 C 211.817 69.271,211.519 70.377,211.338 71.042 C 211.158 71.706,210.853 72.850,210.661 73.583 C 210.286 75.020,209.811 76.773,209.330 78.500 C 209.164 79.096,208.864 80.221,208.664 81.000 C 208.026 83.481,207.650 84.887,207.328 86.000 C 207.155 86.596,206.858 87.683,206.669 88.417 C 206.479 89.150,206.176 90.294,205.995 90.958 C 205.814 91.623,205.517 92.729,205.333 93.417 C 205.150 94.104,204.850 95.229,204.667 95.917 C 204.483 96.604,204.183 97.729,204.000 98.417 C 203.817 99.104,203.507 100.217,203.312 100.891 L 202.958 102.115 203.328 103.432 C 203.532 104.157,203.838 105.237,204.008 105.833 C 204.178 106.429,204.481 107.554,204.683 108.333 C 205.133 110.075,205.566 111.703,206.002 113.292 C 206.184 113.956,206.483 115.063,206.667 115.750 C 206.850 116.438,207.150 117.563,207.333 118.250 C 207.517 118.938,207.817 120.063,208.000 120.750 C 208.183 121.438,208.483 122.563,208.667 123.250 C 208.850 123.938,209.150 125.063,209.333 125.750 C 209.517 126.438,209.814 127.544,209.995 128.208 C 210.176 128.873,210.480 130.017,210.672 130.750 C 211.125 132.483,211.585 134.203,211.998 135.708 C 212.373 137.074,212.779 138.594,213.323 140.667 C 213.528 141.446,213.835 142.571,214.006 143.167 C 214.177 143.762,214.480 144.887,214.681 145.667 C 214.881 146.446,215.178 147.571,215.340 148.167 C 215.872 150.125,216.328 151.814,216.667 153.083 C 216.850 153.771,217.150 154.896,217.333 155.583 C 217.517 156.271,217.817 157.396,218.000 158.083 C 218.183 158.771,218.494 159.888,218.691 160.566 L 219.048 161.799 220.316 162.154 C 221.756 162.558,223.429 163.014,225.250 163.500 C 225.938 163.683,227.063 163.983,227.750 164.167 C 228.438 164.350,229.563 164.650,230.250 164.833 C 230.938 165.017,232.063 165.317,232.750 165.500 C 233.438 165.683,234.563 165.983,235.250 166.167 C 235.938 166.350,237.063 166.650,237.750 166.833 C 238.438 167.017,239.544 167.314,240.208 167.495 C 240.873 167.676,242.017 167.980,242.750 168.172 C 244.187 168.548,245.939 169.022,247.667 169.504 C 248.262 169.670,249.387 169.968,250.167 170.166 C 250.946 170.365,252.039 170.671,252.595 170.847 C 253.152 171.023,253.737 171.167,253.897 171.167 C 254.057 171.167,254.652 171.314,255.219 171.494 C 255.786 171.675,256.850 171.977,257.583 172.166 C 258.317 172.355,259.460 172.658,260.125 172.838 C 260.790 173.019,261.896 173.317,262.583 173.500 C 263.271 173.683,264.396 173.983,265.083 174.167 C 265.771 174.350,266.896 174.650,267.583 174.833 C 268.271 175.017,269.396 175.317,270.083 175.500 C 270.771 175.683,271.896 175.983,272.583 176.167 C 273.271 176.350,274.396 176.650,275.083 176.833 C 275.771 177.017,276.877 177.314,277.542 177.495 C 278.206 177.676,279.350 177.980,280.083 178.172 C 281.520 178.548,283.273 179.022,285.000 179.504 C 285.596 179.670,286.721 179.969,287.500 180.168 C 288.279 180.367,289.404 180.668,290.000 180.836 C 291.271 181.194,293.053 181.674,294.917 182.161 C 295.650 182.353,296.775 182.654,297.417 182.830 C 306.014 185.188,310.314 185.750,319.750 185.750 C 327.120 185.750,327.802 185.703,333.167 184.817 C 338.498 183.937,345.007 182.087,349.917 180.057 C 350.467 179.829,351.067 179.581,351.250 179.506 C 352.747 178.888,357.374 176.629,358.667 175.885 C 359.079 175.647,359.642 175.324,359.917 175.166 C 361.291 174.379,362.336 173.744,363.167 173.192 C 363.671 172.857,364.208 172.508,364.360 172.417 C 364.513 172.325,364.963 172.019,365.360 171.737 C 365.758 171.455,366.346 171.042,366.667 170.820 C 367.677 170.123,368.581 169.422,368.639 169.292 C 368.669 169.223,368.797 169.167,368.922 169.167 C 369.048 169.167,369.210 169.071,369.283 168.954 C 369.357 168.837,369.754 168.484,370.167 168.171 C 372.534 166.371,377.380 161.796,379.705 159.164 C 380.231 158.570,380.800 157.933,380.971 157.750 C 381.494 157.187,383.885 154.154,384.847 152.833 C 386.156 151.035,386.291 150.835,387.731 148.545 C 388.180 147.833,388.714 146.987,388.920 146.667 C 390.328 144.470,393.135 138.785,394.270 135.833 C 394.499 135.237,394.823 134.412,394.990 134.000 C 399.696 122.360,401.321 105.459,398.987 92.417 C 398.229 88.184,397.280 84.222,396.471 81.917 C 396.375 81.642,396.195 81.079,396.071 80.667 C 395.615 79.140,394.334 75.771,393.496 73.891 C 392.230 71.053,391.198 68.910,390.577 67.833 C 390.286 67.329,389.801 66.467,389.500 65.917 C 388.477 64.052,388.356 63.858,386.284 60.750 C 385.551 59.650,384.887 58.725,384.809 58.694 C 384.731 58.664,384.667 58.565,384.667 58.475 C 384.667 58.385,384.348 57.917,383.958 57.436 C 383.569 56.955,383.100 56.351,382.917 56.095 C 382.733 55.839,382.473 55.514,382.338 55.373 C 382.203 55.232,381.728 54.659,381.283 54.100 C 378.923 51.135,374.177 46.392,371.167 43.989 C 370.571 43.514,370.023 43.022,369.950 42.896 C 369.877 42.770,369.714 42.667,369.589 42.667 C 369.464 42.667,369.336 42.601,369.306 42.521 C 369.231 42.328,367.022 40.667,366.838 40.667 C 366.759 40.667,366.669 40.605,366.639 40.530 C 366.590 40.410,364.933 39.206,364.189 38.750 C 363.720 38.463,361.937 37.303,361.465 36.978 C 361.217 36.807,360.976 36.667,360.931 36.667 C 360.885 36.667,360.451 36.432,359.966 36.144 C 357.695 34.799,354.593 33.237,351.917 32.088 C 349.109 30.884,348.721 30.733,345.750 29.682 C 344.203 29.136,341.343 28.314,336.417 27.000 C 335.729 26.817,334.604 26.517,333.917 26.333 C 333.229 26.150,332.104 25.850,331.417 25.667 C 330.729 25.483,329.604 25.183,328.917 25.000 C 328.229 24.817,327.104 24.517,326.417 24.333 C 325.147 23.995,323.459 23.539,321.500 23.006 C 320.904 22.844,319.779 22.548,319.000 22.347 C 318.221 22.147,317.096 21.843,316.500 21.672 C 315.904 21.501,314.779 21.194,314.000 20.990 C 311.928 20.446,310.407 20.040,309.042 19.665 C 308.377 19.483,307.271 19.183,306.583 19.000 C 305.896 18.817,304.771 18.517,304.083 18.333 C 303.396 18.150,302.271 17.850,301.583 17.667 C 300.896 17.483,299.771 17.183,299.083 17.000 C 298.396 16.817,297.271 16.517,296.583 16.333 C 295.896 16.150,294.771 15.850,294.083 15.667 C 293.396 15.483,292.271 15.183,291.583 15.000 C 290.896 14.817,289.771 14.517,289.083 14.333 C 288.396 14.150,287.290 13.851,286.625 13.668 C 285.208 13.279,283.636 12.860,281.667 12.345 C 280.887 12.141,279.762 11.837,279.167 11.669 C 278.571 11.500,277.483 11.204,276.750 11.010 C 276.017 10.816,274.873 10.509,274.208 10.328 C 272.514 9.868,270.807 9.413,269.250 9.005 C 268.517 8.814,267.373 8.509,266.708 8.328 C 266.044 8.148,264.938 7.850,264.250 7.667 C 263.563 7.483,262.438 7.183,261.750 7.000 C 261.063 6.817,259.938 6.517,259.250 6.333 C 258.563 6.150,257.438 5.850,256.750 5.667 C 256.063 5.483,254.938 5.183,254.250 5.000 C 252.981 4.661,251.292 4.206,249.333 3.673 C 248.737 3.511,247.612 3.214,246.833 3.014 C 245.441 2.656,243.979 2.261,241.833 1.663 C 241.237 1.497,240.112 1.199,239.333 1.000 C 238.554 0.802,237.461 0.496,236.905 0.320 C 235.369 -0.166,232.997 -0.118,232.000 0.419 M304.167 61.244 C 312.327 62.840,316.694 71.660,312.989 79.063 C 308.383 88.265,295.276 88.272,290.686 79.074 C 286.075 69.835,294.064 59.269,304.167 61.244 M102.667 64.527 C 101.607 64.817,99.770 65.307,98.417 65.661 C 97.683 65.853,96.540 66.158,95.875 66.338 C 95.210 66.519,94.104 66.817,93.417 67.000 C 92.729 67.183,91.604 67.483,90.917 67.667 C 90.229 67.850,89.085 68.155,88.375 68.345 C 87.665 68.535,86.591 68.835,85.988 69.012 C 85.386 69.189,84.755 69.333,84.586 69.333 C 82.915 69.333,81.880 71.303,82.485 73.333 C 82.787 74.347,82.998 75.116,83.833 78.250 C 84.017 78.938,84.317 80.063,84.500 80.750 C 84.683 81.438,84.983 82.563,85.167 83.250 C 85.969 86.259,86.208 87.138,86.455 88.000 C 87.065 90.124,87.028 90.867,86.295 91.150 C 85.932 91.290,84.767 91.618,82.083 92.333 C 81.396 92.517,80.271 92.817,79.583 93.000 C 78.896 93.183,77.790 93.481,77.125 93.662 C 76.460 93.842,75.335 94.142,74.625 94.328 C 73.915 94.514,72.752 94.819,72.042 95.005 C 67.209 96.270,66.405 97.049,67.237 99.667 C 67.476 100.420,67.847 101.772,68.495 104.250 C 68.686 104.983,68.991 106.127,69.172 106.792 C 69.352 107.456,69.650 108.563,69.833 109.250 C 70.017 109.938,70.317 111.063,70.500 111.750 C 70.683 112.438,70.989 113.581,71.178 114.292 C 71.368 115.002,71.668 116.076,71.845 116.678 C 72.022 117.281,72.167 117.912,72.167 118.082 C 72.167 119.451,74.419 120.168,76.655 119.512 C 77.257 119.335,78.331 119.035,79.042 118.845 C 79.752 118.655,80.896 118.350,81.583 118.167 C 82.271 117.983,83.396 117.683,84.083 117.500 C 84.771 117.317,85.877 117.019,86.542 116.838 C 87.206 116.658,88.350 116.355,89.083 116.166 C 89.817 115.977,90.881 115.675,91.448 115.494 C 93.133 114.959,93.829 115.203,94.077 116.417 C 94.134 116.692,94.327 117.460,94.506 118.125 C 94.686 118.790,94.983 119.896,95.167 120.583 C 95.350 121.271,95.650 122.396,95.833 123.083 C 96.017 123.771,96.314 124.877,96.495 125.542 C 96.676 126.206,96.978 127.350,97.167 128.083 C 97.356 128.817,97.659 129.881,97.839 130.448 C 98.019 131.015,98.167 131.613,98.167 131.778 C 98.167 134.237,100.138 135.584,102.655 134.845 C 103.257 134.668,104.331 134.368,105.042 134.178 C 105.752 133.989,106.896 133.683,107.583 133.500 C 108.271 133.317,109.396 133.017,110.083 132.833 C 110.771 132.650,111.896 132.350,112.583 132.167 C 113.271 131.983,114.396 131.683,115.083 131.500 C 115.771 131.317,116.896 131.017,117.583 130.833 C 121.462 129.799,121.837 129.614,122.378 128.474 C 122.729 127.736,122.737 127.364,122.429 126.265 C 122.299 125.798,122.036 124.835,121.846 124.125 C 121.656 123.415,121.352 122.290,121.172 121.625 C 120.991 120.960,120.686 119.817,120.495 119.083 C 119.906 116.831,119.485 115.284,119.248 114.500 C 119.123 114.087,118.858 113.112,118.659 112.333 C 117.872 109.257,117.870 109.239,118.111 108.778 C 118.342 108.336,118.387 108.319,121.417 107.496 C 122.150 107.297,123.237 107.002,123.833 106.840 C 124.429 106.678,125.554 106.383,126.333 106.184 C 127.112 105.986,128.237 105.679,128.833 105.503 C 129.429 105.328,130.104 105.146,130.333 105.100 C 130.563 105.054,131.575 104.787,132.583 104.508 C 133.592 104.228,134.742 103.923,135.139 103.829 C 137.367 103.304,138.196 102.021,137.655 99.936 C 137.488 99.290,137.304 98.598,136.500 95.583 C 136.317 94.896,136.017 93.771,135.833 93.083 C 135.090 90.297,134.793 89.199,134.502 88.167 C 134.334 87.571,134.033 86.446,133.832 85.667 C 133.630 84.887,133.327 83.725,133.158 83.083 C 132.989 82.442,132.812 81.728,132.765 81.498 C 132.483 80.109,130.772 79.280,129.125 79.735 C 128.552 79.893,127.540 80.168,126.875 80.345 C 126.210 80.522,125.104 80.817,124.417 81.000 C 123.729 81.183,122.604 81.483,121.917 81.667 C 121.229 81.850,120.104 82.150,119.417 82.333 C 118.729 82.517,117.604 82.817,116.917 83.000 C 115.158 83.469,113.363 83.946,112.601 84.146 C 111.772 84.364,111.050 84.035,110.905 83.372 C 110.748 82.654,110.181 80.520,109.831 79.333 C 109.656 78.737,109.350 77.612,109.151 76.833 C 108.951 76.054,108.656 74.929,108.494 74.333 C 107.961 72.375,107.505 70.686,107.167 69.417 C 106.071 65.309,105.934 65.021,104.855 64.569 C 104.223 64.304,103.529 64.291,102.667 64.527 M271.500 79.907 C 280.064 81.353,284.530 90.775,280.266 98.399 C 276.261 105.561,265.972 106.805,260.412 100.799 C 252.233 91.965,259.690 77.913,271.500 79.907 M323.083 93.648 C 336.256 96.671,336.303 115.003,323.146 118.110 C 314.939 120.048,306.451 112.048,308.175 104.000 C 308.264 103.587,308.382 102.987,308.439 102.667 C 308.566 101.951,309.730 99.462,310.311 98.667 C 311.849 96.558,315.637 93.861,317.109 93.826 C 317.278 93.822,317.792 93.714,318.250 93.587 C 319.422 93.262,321.515 93.288,323.083 93.648 M290.598 112.344 C 293.781 113.008,297.354 115.412,298.587 117.719 C 298.694 117.919,298.972 118.421,299.206 118.833 C 301.063 122.119,301.085 126.762,299.260 130.250 C 298.777 131.173,298.463 131.707,298.328 131.833 C 298.279 131.879,297.950 132.274,297.598 132.710 C 296.417 134.172,293.274 136.268,291.816 136.566 C 291.596 136.611,290.892 136.763,290.250 136.904 C 280.494 139.049,272.286 127.727,277.088 118.750 C 277.914 117.205,280.275 114.500,280.797 114.500 C 280.886 114.500,281.051 114.389,281.164 114.253 C 281.276 114.118,281.567 113.907,281.809 113.784 C 282.052 113.662,282.400 113.480,282.583 113.381 C 284.886 112.136,287.795 111.760,290.598 112.344 M256.586 159.333 C 257.272 159.517,258.415 159.822,259.125 160.011 C 262.034 160.788,262.650 160.981,263.049 161.243 C 264.002 161.867,264.067 163.400,263.174 164.205 C 262.287 165.004,262.247 165.001,257.667 163.740 C 257.254 163.626,256.317 163.375,255.584 163.181 C 253.810 162.712,253.245 162.181,253.262 161.001 C 253.287 159.303,254.394 158.747,256.586 159.333 M355.561 164.563 C 357.394 165.329,357.258 167.273,355.291 168.431 C 346.617 173.536,334.678 177.049,323.833 177.688 C 315.088 178.202,308.465 177.366,297.125 174.316 C 294.719 173.669,292.375 173.038,291.917 172.915 C 290.068 172.419,288.368 171.962,287.500 171.728 C 284.600 170.946,281.896 170.226,280.375 169.831 C 277.397 169.058,276.667 168.578,276.667 167.396 C 276.667 165.815,277.961 165.000,279.668 165.506 C 280.199 165.663,281.188 165.930,284.625 166.845 C 286.043 167.223,287.879 167.714,289.167 168.061 C 289.671 168.197,290.665 168.464,291.375 168.654 C 292.085 168.844,293.248 169.156,293.958 169.347 C 300.261 171.038,303.998 172.009,305.333 172.301 C 320.713 175.664,337.637 173.360,351.333 166.041 C 355.015 164.073,354.674 164.192,355.561 164.563 " stroke="none" fill="#045464" fill-rule="evenodd"></path><path id="path2" d="M317.127 177.785 C 317.334 177.824,317.634 177.823,317.794 177.781 C 317.953 177.739,317.783 177.707,317.417 177.709 C 317.050 177.711,316.920 177.745,317.127 177.785 M321.627 177.785 C 321.834 177.824,322.134 177.823,322.294 177.781 C 322.453 177.739,322.283 177.707,321.917 177.709 C 321.550 177.711,321.420 177.745,321.627 177.785 " stroke="none" fill="#04708a" fill-rule="evenodd"></path><path id="path3" d="M317.458 173.951 C 317.665 173.991,318.002 173.991,318.208 173.951 C 318.415 173.911,318.246 173.879,317.833 173.879 C 317.421 173.879,317.252 173.911,317.458 173.951 M321.211 173.953 C 321.464 173.991,321.839 173.990,322.044 173.951 C 322.249 173.911,322.042 173.880,321.583 173.881 C 321.125 173.882,320.957 173.915,321.211 173.953 M314.875 177.615 C 315.035 177.657,315.298 177.657,315.458 177.615 C 315.619 177.573,315.487 177.539,315.167 177.539 C 314.846 177.539,314.715 177.573,314.875 177.615 M323.875 177.615 C 324.035 177.657,324.298 177.657,324.458 177.615 C 324.619 177.573,324.487 177.539,324.167 177.539 C 323.846 177.539,323.715 177.573,323.875 177.615 M319.125 177.787 C 319.423 177.824,319.910 177.824,320.208 177.787 C 320.506 177.750,320.262 177.720,319.667 177.720 C 319.071 177.720,318.827 177.750,319.125 177.787 " stroke="none" fill="#047c9c" fill-rule="evenodd"></path><path id="path4" d="M319.042 173.955 C 319.385 173.991,319.948 173.991,320.292 173.955 C 320.635 173.919,320.354 173.889,319.667 173.889 C 318.979 173.889,318.698 173.919,319.042 173.955 " stroke="none" fill="#047c94" fill-rule="evenodd"></path></g></svg>